<?xml version="1.0" encoding="utf-8"?>
<!-- Generator: Adobe Illustrator 26.0.3, SVG Export Plug-In . SVG Version: 6.00 Build 0)  -->
<svg version="1.1" id="Laag_1" xmlns="http://www.w3.org/2000/svg" xmlns:xlink="http://www.w3.org/1999/xlink" x="0px" y="0px"
	 viewBox="0 0 600 255.5" style="enable-background:new 0 0 600 255.5;" xml:space="preserve">
<style type="text/css">
	.st0{fill:#E6E6E6;stroke:#152C5B;stroke-miterlimit:10;}
	.st1{fill:#008aff;stroke:#152C5B;stroke-miterlimit:10;}
	.st2{fill:#C6DD7F;stroke:#152C5B;stroke-miterlimit:10;}
	.st3{fill:#F0C8B4;stroke:#152C5B;stroke-miterlimit:10;}
	.st4{fill:none;}
	.st5{font-family:'Arial';}
	.st6{font-size:17px;}
	.st7{fill:#FFFFFF;}
	.st8{fill:#152C5B;}
	.st9{font-size:16px;}
</style>
<path class="st0" d="M118.6,114.6H45.6c-5.4,0-9.8-4.4-9.8-9.8V31.9c0-5.4,4.4-9.8,9.8-9.8h72.9c5.4,0,9.8,4.4,9.8,9.8v72.9
	C128.3,110.2,123.9,114.6,118.6,114.6z"/>
<path class="st1" d="M248.4,114.6h-72.9c-5.4,0-9.8-4.4-9.8-9.8V31.9c0-5.4,4.4-9.8,9.8-9.8h72.9c5.4,0,9.8,4.4,9.8,9.8v72.9
	C258.1,110.2,253.7,114.6,248.4,114.6z"/>
<path class="st2" d="M548.6,114.6h-72.9c-5.4,0-9.8-4.4-9.8-9.8V31.9c0-5.4,4.4-9.8,9.8-9.8h72.9c5.4,0,9.8,4.4,9.8,9.8v72.9
	C558.3,110.2,554,114.6,548.6,114.6z"/>
<path class="st3" d="M416.9,114.6H307.2c-6.5,0-11.7-5.2-11.7-11.7v-69c0-6.5,5.2-11.7,11.7-11.7h109.7c6.5,0,11.7,5.2,11.7,11.7v69
	C428.5,109.3,423.3,114.6,416.9,114.6z"/>
<path class="st0" d="M248.4,234.3h-72.9c-5.4,0-9.8-4.4-9.8-9.8v-72.9c0-5.4,4.4-9.8,9.8-9.8h72.9c5.4,0,9.8,4.4,9.8,9.8v72.9
	C258.1,230,253.7,234.3,248.4,234.3z"/>
<path class="st1" d="M378.1,234.3h-72.9c-5.4,0-9.8-4.4-9.8-9.8v-72.9c0-5.4,4.4-9.8,9.8-9.8h72.9c5.4,0,9.8,4.4,9.8,9.8v72.9
	C387.9,230,383.5,234.3,378.1,234.3z"/>
<rect x="57.5" y="52.6" class="st4" width="49.1" height="34.6"/>
<text transform="matrix(1 0 0 1 62.1152 64.5731)" class="st5 st6">Load </text>
<text transform="matrix(1 0 0 1 58.0952 84.9731)" class="st5 st6">HTML</text>
<rect x="187.4" y="52.6" class="st4" width="49.1" height="34.6"/>
<text transform="matrix(1 0 0 1 189.1636 64.5731)" class="st7 st5 st6">Parse </text>
<text transform="matrix(1 0 0 1 187.8936 84.9731)" class="st7 st5 st6">HTML</text>
<rect x="187.4" y="170.8" class="st4" width="49.1" height="34.6"/>
<text transform="matrix(1 0 0 1 191.9175 182.8082)" class="st5 st6">Load </text>
<text transform="matrix(1 0 0 1 194.8375 203.2082)" class="st5 st6">CSS</text>
<rect x="317.2" y="170.8" class="st4" width="49.1" height="34.6"/>
<text transform="matrix(1 0 0 1 318.9659 182.8082)" class="st7 st5 st6">Parse</text>
<text transform="matrix(1 0 0 1 324.6359 203.2082)" class="st7 st5 st6">CSS</text>
<rect x="311.9" y="51" class="st4" width="100.2" height="34.6"/>
<text transform="matrix(1 0 0 1 319.8922 63.0211)" class="st5 st6">Create the</text>
<text transform="matrix(1 0 0 1 322.9822 83.4211)" class="st5 st6">DOM tree</text>
<rect x="462" y="62.4" class="st4" width="100.2" height="15.1"/>
<text transform="matrix(1 0 0 1 482.0185 74.3447)" class="st5 st6">Display</text>
<rect x="128.3" y="62.1" class="st8" width="37.4" height="7.8"/>
<rect x="258.1" y="62.1" class="st8" width="37.4" height="7.8"/>
<rect x="428.5" y="62.1" class="st8" width="37.4" height="7.8"/>
<rect x="208" y="114.6" class="st8" width="7.8" height="27.4"/>
<rect x="258.1" y="184.2" class="st8" width="37.4" height="7.8"/>
<rect x="387.9" y="188.1" class="st8" width="21.7" height="7.8"/>
<rect x="405.8" y="131.6" class="st8" width="7.8" height="64.3"/>
<text transform="matrix(1 0 0 1 424.0844 160.6202)" class="st5 st9">Attach styles</text>
<text transform="matrix(1 0 0 1 424.0044 181.0202)" class="st5 st9">to DOM nodes</text>
<polygon class="st8" points="409.6,120.3 400.3,133.4 418.6,133.4 "/>
</svg>
